HIERARCHY
ROOT Hips
{
	OFFSET 0.0000 0.0000 0.0000
	CHANNELS 6 Xposition Yposition Zposition Zrotation Xrotation Yrotation
	JOINT Ab
	{
		OFFSET -0.0000 8.0846 -0.0000
		CHANNELS 3 Zrotation Xrotation Yrotation
		JOINT Chest
		{
			OFFSET -0.0000 25.0068 -0.0000
			CHANNELS 3 Zrotation Xrotation Yrotation
			JOINT Neck
			{
				OFFSET -0.0000 25.0068 0.0000
				CHANNELS 3 Zrotation Xrotation Yrotation
				JOINT Head
				{
					OFFSET -0.0000 10.7556 0.0000
					CHANNELS 3 Zrotation Xrotation Yrotation
					End Site
					{
						OFFSET -0.0000 16.6222 0.0000
					}
				}
			}
			JOINT LeftCollar
			{
				OFFSET -0.0000 25.0068 0.0000
				CHANNELS 3 Zrotation Xrotation Yrotation
				JOINT LeftShoulder
				{
					OFFSET 19.5556 -0.0000 0.0000
					CHANNELS 3 Zrotation Xrotation Yrotation
					JOINT LeftElbow
					{
						OFFSET 27.1828 0.0000 0.0000
						CHANNELS 3 Zrotation Xrotation Yrotation
						JOINT LeftWrist
						{
							OFFSET 23.3157 0.0000 0.0000
							CHANNELS 3 Zrotation Xrotation Yrotation
							End Site
							{
								OFFSET 0.0000 -14.6667 0.0000
							}
						}
					}
				}
			}
			JOINT RightCollar
			{
				OFFSET -0.0000 25.0068 0.0000
				CHANNELS 3 Zrotation Xrotation Yrotation
				JOINT RightShoulder
				{
					OFFSET -19.5556 0.0000 0.0000
					CHANNELS 3 Zrotation Xrotation Yrotation
					JOINT RightElbow
					{
						OFFSET -27.1828 0.0000 0.0000
						CHANNELS 3 Zrotation Xrotation Yrotation
						JOINT RightWrist
						{
							OFFSET -23.3157 0.0000 0.0000
							CHANNELS 3 Zrotation Xrotation Yrotation
							End Site
							{
								OFFSET -0.0000 -14.6667 0.0000
							}
						}
					}
				}
			}
		}
	}
	JOINT LeftHip
	{
		OFFSET 11.7333 0.0000 0.0000
		CHANNELS 3 Zrotation Xrotation Yrotation
		JOINT LeftKnee
		{
			OFFSET -0.0000 -40.8688 0.0000
			CHANNELS 3 Zrotation Xrotation Yrotation
			JOINT LeftAnkle
			{
				OFFSET -0.0000 -44.4337 0.0000
				CHANNELS 3 Zrotation Xrotation Yrotation
				End Site
				{
					OFFSET -0.0000 -4.8889 16.6222
				}
			}
		}
	}
	JOINT RightHip
	{
		OFFSET -11.7333 0.0000 0.0000
		CHANNELS 3 Zrotation Xrotation Yrotation
		JOINT RightKnee
		{
			OFFSET -0.0000 -40.8688 0.0000
			CHANNELS 3 Zrotation Xrotation Yrotation
			JOINT RightAnkle
			{
				OFFSET -0.0000 -44.4337 0.0000
				CHANNELS 3 Zrotation Xrotation Yrotation
				End Site
				{
					OFFSET -0.0000 -4.8889 16.6222
				}
			}
		}
	}
}
MOTION
Frames: 16
Frame Time: 0.010000
0.0702 88.8879 121.7532 0.3045 354.9124 181.3130 1.2950 7.1943 359.5553 354.6654 5.1782 359.8763 1.8664 337.2775 359.8847 1.7266 3.0090 359.4557 341.2717 357.6086 14.3931 298.9474 32.9056 5.2204 23.0847 351.7890 321.5916 88.1054 354.4998 354.3418 19.7438 358.8758 353.7324 41.6011 51.9396 28.8430 327.7790 348.4944 38.8163 268.6779 349.5488 7.0119 0.5613 343.7362 355.8658 357.9748 13.9770 359.0527 344.9849 348.1803 26.5858 0.4511 346.2814 1.8639 359.1543 28.6034 7.6079 356.3679 344.3605 338.7514 
0.0265 88.6176 120.6396 0.5047 355.1519 181.1379 1.2822 7.1882 359.6743 354.6554 5.1337 359.9932 1.9730 337.5361 359.8245 1.8252 3.1289 359.3792 341.3806 357.6300 14.4156 298.3994 32.1648 5.8181 23.0227 351.9309 321.9685 88.6330 354.7621 354.0930 19.7198 358.9158 354.0062 40.4820 51.5965 29.8570 327.9500 348.4879 38.9780 269.3410 349.6341 7.1957 0.7954 343.6693 355.8808 357.8729 14.6261 359.1694 345.2618 347.4983 28.3845 0.6730 346.4391 1.8437 358.9874 29.9956 8.2411 356.0004 343.8592 338.3094 
-0.0233 88.3050 119.5065 0.7135 355.3898 180.8671 1.2689 7.1524 359.8226 354.6471 5.0821 0.1378 2.1139 337.6751 359.7332 1.8145 3.4364 359.2504 341.4470 357.6351 14.4259 297.9881 31.5173 6.2552 23.4836 351.7997 322.6600 87.6358 354.9168 353.2704 19.7306 358.9451 354.1803 39.3168 51.2157 30.8854 328.2790 348.6074 39.0464 269.5090 349.4072 7.4545 1.0612 343.7019 356.2867 357.7341 15.6021 358.9839 346.0890 347.5049 29.1185 0.9257 346.4842 1.9624 358.8888 31.5459 8.6737 355.6137 343.2503 337.9622 
-0.0886 87.9803 118.3991 0.9715 355.6145 180.5373 1.3446 7.0818 359.9531 354.6323 4.9953 0.2681 2.1295 337.9601 359.6152 2.0436 3.6048 359.1270 341.5184 357.6620 14.2566 297.5502 30.0076 6.9554 23.2165 352.0838 322.8741 87.8017 355.2908 352.2006 19.7000 358.9869 354.3399 38.2574 50.7506 31.8324 328.6311 348.7269 39.1499 269.7730 348.8649 7.8911 1.3620 343.7964 356.7288 357.6018 16.9432 358.6473 347.5785 347.8067 29.6826 1.2113 346.4521 1.9425 358.7193 33.1969 9.3208 355.4268 342.7289 337.8079 
-0.1458 87.7006 117.4642 1.2692 355.9510 180.1447 1.5319 7.1019 0.0375 354.5281 4.8991 0.3646 2.3962 338.2352 359.6046 2.1065 3.8297 359.0688 341.6524 357.6906 14.1239 297.0978 28.4700 7.8264 22.7962 352.2776 322.8917 88.1087 355.7274 351.0681 19.6615 359.0298 354.5287 37.1521 50.3408 32.9248 328.8845 348.7849 39.2822 270.4185 348.5555 8.2927 1.6881 344.1381 357.0063 357.4465 18.3463 358.2678 351.4112 348.9638 26.5932 1.5908 346.4856 1.8338 358.4929 34.7809 10.2218 355.5210 341.9167 337.5494 
-0.2371 87.4037 116.4240 1.4814 356.2474 179.6617 1.5977 7.1022 0.1626 354.4210 4.7609 0.4907 2.7442 338.4320 359.6514 2.2281 4.0887 359.0482 341.7494 357.7120 14.1308 296.7179 27.1757 8.6252 22.5713 352.3864 323.0714 88.0866 356.0113 350.2512 19.5973 359.0751 354.7568 36.5011 49.9167 33.5759 329.1780 348.8482 39.5161 270.9580 348.1935 8.7681 1.9685 344.5527 357.2937 357.1729 19.8380 357.6291 354.7961 349.2899 22.7190 1.8617 346.3472 1.7156 358.1669 36.6798 10.9819 355.6043 341.1767 337.4745 
-0.3862 87.1054 115.1013 1.4812 356.5021 178.9792 1.4094 7.0567 0.3616 354.2552 4.6333 0.6780 3.1582 338.4709 359.7168 2.4353 4.4222 359.0177 341.8251 357.7256 14.1785 296.4898 26.0598 9.3241 22.3999 352.4935 323.2581 88.1266 356.3905 349.6517 19.5846 359.0864 354.7979 35.7562 49.7066 34.3780 329.4641 348.8928 39.7381 271.3422 348.2767 9.4195 1.9887 345.1829 358.0067 356.9678 20.9859 357.1534 355.3583 348.9863 23.1795 1.8707 345.9760 1.7831 357.8375 39.2186 11.3370 356.3104 340.5613 338.0125 
-0.4993 86.8674 114.0281 1.3895 356.7635 178.3036 1.1364 7.0708 0.4989 354.1636 4.5841 0.8001 3.5846 338.4317 359.8747 2.6129 4.6184 359.0908 341.9489 357.7513 13.9178 296.3267 24.0280 10.0914 21.7165 352.7523 323.0294 88.1903 356.7776 348.5620 19.5482 359.0798 354.6473 34.8499 49.6106 35.4213 329.8515 349.0017 39.9160 271.2814 348.3194 10.1129 2.0268 346.0098 358.5605 356.7289 21.3535 357.5635 355.3144 348.4762 22.7464 1.8976 345.4188 2.0531 357.5308 41.7698 11.8573 357.5070 340.1463 338.3201 
-0.6325 86.6672 112.9863 1.1680 356.9234 177.8335 0.7880 7.0320 0.5190 354.0670 4.5212 0.7988 3.9103 338.4216 359.9913 2.8191 4.6639 359.1342 341.9652 357.7536 13.7578 296.1867 23.2830 10.5696 21.7669 352.6895 323.1984 87.8523 356.9559 348.3754 19.5041 359.0624 354.4891 34.4881 49.6378 35.8635 330.0312 348.9717 40.2191 271.4206 348.3272 10.7644 1.9641 346.7255 358.8159 356.2697 21.6861 357.9193 355.4848 348.0120 22.5821 1.7248 344.6240 2.2564 357.5386 44.4502 11.7016 356.7165 340.7743 338.2610 
-0.7813 86.5054 111.9514 0.8767 357.0298 177.5034 0.3826 7.0020 0.5296 353.9831 4.3550 0.7789 4.1594 338.3804 0.0113 2.9405 4.8119 359.0879 341.8411 357.7685 13.4092 296.4428 21.8100 11.0794 21.1798 352.9658 322.9398 87.9602 357.1411 347.5567 19.5034 359.0321 354.3448 34.5047 49.8362 35.8581 330.1689 348.9249 40.5236 271.3861 348.3492 11.1430 1.7473 347.3412 358.9341 355.8234 22.0449 357.9330 355.9450 347.3047 22.8414 1.4078 343.6846 2.4440 357.9229 47.2899 10.7396 356.6010 341.3298 338.7850 
-0.9245 86.3843 110.9216 0.5828 357.1207 177.2857 0.1439 6.9483 0.4928 353.6092 4.2815 0.7350 4.6233 338.1796 0.0593 2.8843 5.1021 359.0300 341.8046 357.8259 13.0771 296.7244 21.1580 11.2287 20.9599 352.9901 322.9746 87.7535 357.3323 346.9926 19.6208 358.9865 354.2232 35.2872 49.8309 35.1275 330.5334 348.9823 41.0191 270.8466 348.2844 11.4685 1.4269 348.0022 359.1978 355.5923 22.2566 357.9479 356.8681 346.8568 22.9204 1.0137 342.6789 2.5740 358.5703 50.0978 9.2646 357.6695 341.8433 339.9303 
-1.0575 86.2917 109.9138 0.3637 357.1783 177.2603 359.9803 6.8711 0.3521 353.3809 4.2085 0.5902 4.8681 338.1122 0.0549 2.8483 5.2984 358.9733 341.6574 357.8626 12.6810 296.9597 21.1446 11.2156 20.9994 352.9217 323.1486 87.8965 357.6055 346.7635 19.6743 358.9860 354.1615 36.6211 49.7839 33.7491 330.9547 349.0267 41.5819 270.1645 348.1105 11.8265 1.1349 348.7198 359.4571 355.4955 22.2640 357.9041 358.2851 346.7692 23.0631 0.6112 341.6615 2.4710 359.3436 52.6360 7.5329 358.2848 342.8244 340.5782 
-1.1842 86.2231 108.9180 0.2319 357.1558 177.4027 359.8965 6.6404 0.2149 353.2918 4.2499 0.4560 4.9623 338.1868 0.0176 2.7934 5.3453 358.9250 341.4564 357.9028 12.0860 297.2381 20.8294 11.0879 20.8356 353.0559 323.2085 88.2283 357.7273 346.3583 19.7141 358.9688 353.9810 37.9030 49.6961 32.4025 331.3627 349.0583 42.0219 269.9631 347.9186 11.9737 0.9338 349.4201 0.0733 355.6128 22.1317 357.2904 358.7850 346.4801 23.0933 0.1910 340.6086 2.1673 0.1665 54.7819 6.0825 359.4149 343.2356 340.8222 
-1.2857 86.1638 107.8742 0.1796 357.1834 177.6971 359.8954 6.4538 359.9097 353.3383 4.3631 0.1548 4.7764 338.2108 359.9629 2.8992 5.4171 358.9085 341.1433 357.9553 11.4237 297.6434 20.4360 10.7132 20.6346 353.1545 323.0949 88.4217 357.9883 345.8079 19.7824 358.9262 353.6832 39.1061 49.5430 31.1028 331.9672 349.2610 42.1402 269.7889 347.5756 12.1382 0.7762 350.2876 0.5741 355.7053 21.8039 356.7136 358.9805 346.2035 22.9407 359.8083 339.7198 2.0014 1.2679 56.4064 4.6024 359.3482 343.4343 340.9492 
-1.3910 86.1355 106.8539 0.1953 357.0556 178.0271 359.9880 6.2268 359.5615 353.4513 4.3042 359.8086 4.5502 338.3208 359.9936 2.9900 5.5292 358.9824 340.7827 358.0029 10.9261 298.1345 20.1808 10.0224 20.4999 353.1942 323.1374 88.4574 357.9999 345.2193 19.8609 358.8836 353.4582 40.4464 49.4431 29.5453 332.6862 349.5723 42.0645 269.5033 347.1820 12.3730 0.6419 351.0707 0.8493 355.7987 21.3492 356.4356 359.0462 345.9186 22.7077 359.4905 338.6817 1.7253 2.1688 57.5113 3.6178 358.0189 343.7224 340.7712 
-1.4881 86.1411 105.8240 0.3136 356.9662 178.4326 0.1272 6.0025 359.3098 353.6127 4.3120 359.5563 4.6351 338.4866 0.0599 2.6914 5.6061 359.0496 340.4626 358.0565 10.5559 298.6199 20.6805 9.0038 20.7367 353.0828 323.4812 88.6644 357.8826 345.1984 19.9135 358.8429 353.2452 42.1337 49.2341 27.6321 333.4438 349.9137 41.9454 269.3343 346.6760 12.8693 0.5106 351.9445 0.8892 356.0288 20.7634 356.3157 359.0257 345.6621 22.4070 359.2742 337.7426 1.3809 3.1084 58.0653 2.5979 357.4488 343.5149 340.3954 
